<svg xmlns="http://www.w3.org/2000/svg" viewBox="0 0 1440 320"><path fill="#273036" fill-opacity="1" d="M0,160L14.1,154.7C28.2,149,56,139,85,160C112.9,181,141,235,169,240C197.6,245,226,203,254,192C282.4,181,311,203,339,213.3C367.1,224,395,224,424,197.3C451.8,171,480,117,508,101.3C536.5,85,565,107,593,112C621.2,117,649,107,678,122.7C705.9,139,734,181,762,192C790.6,203,819,181,847,170.7C875.3,160,904,160,932,186.7C960,213,988,267,1016,261.3C1044.7,256,1073,192,1101,144C1129.4,96,1158,64,1186,85.3C1214.1,107,1242,181,1271,192C1298.8,203,1327,149,1355,149.3C1383.5,149,1412,203,1426,229.3L1440,256L1440,0L1425.9,0C1411.8,0,1384,0,1355,0C1327.1,0,1299,0,1271,0C1242.4,0,1214,0,1186,0C1157.6,0,1129,0,1101,0C1072.9,0,1045,0,1016,0C988.2,0,960,0,932,0C903.5,0,875,0,847,0C818.8,0,791,0,762,0C734.1,0,706,0,678,0C649.4,0,621,0,593,0C564.7,0,536,0,508,0C480,0,452,0,424,0C395.3,0,367,0,339,0C310.6,0,282,0,254,0C225.9,0,198,0,169,0C141.2,0,113,0,85,0C56.5,0,28,0,14,0L0,0Z"></path></svg>